<svg xmlns="http://www.w3.org/2000/svg" viewBox="0 0 377.2 134.62"><g id="Layer_2" data-name="Layer 2"><g id="Layer_1-2" data-name="Layer 1"><path d="M309.89,0a67.39,67.39,0,0,0-60.67,38.18h11.39a57.27,57.27,0,1,1,5.75,66.3H253.81A67.3,67.3,0,1,0,309.89,0Z"/><path d="M13.33,94.07A24.91,24.91,0,0,1,3.56,84.8,25.52,25.52,0,0,1,0,71.4,25.51,25.51,0,0,1,3.56,58a24.84,24.84,0,0,1,9.77-9.27,29,29,0,0,1,14-3.34,29.36,29.36,0,0,1,11.82,2.3A23.61,23.61,0,0,1,48,54.31L40.52,61.2a16.1,16.1,0,0,0-12.65-5.89,16.73,16.73,0,0,0-8.33,2,14.52,14.52,0,0,0-5.71,5.71,18,18,0,0,0,0,16.67,14.58,14.58,0,0,0,5.71,5.71,16.83,16.83,0,0,0,8.33,2,16,16,0,0,0,12.65-6L48,88.43a23.35,23.35,0,0,1-8.91,6.68,29.64,29.64,0,0,1-11.85,2.3A28.82,28.82,0,0,1,13.33,94.07Z"/><path d="M101.94,46.26V96.55H90.3V75.93H67.45V96.55H55.82V46.26H67.45V66.09H90.3V46.26Z"/><path d="M147,85.77H123.63l-4.45,10.78H107.25l22.42-50.29h11.49l22.49,50.29H151.43Zm-3.66-8.83-8-19.26-8,19.26Z"/><path d="M215,46.26V96.55h-9.55L180.38,66V96.55H168.89V46.26h9.63l25,30.53V46.26Z"/><path d="M264.84,86.72v9.4H221.25V88.64l27.35-33H221.82v-9.4h41.95v7.48l-27.28,33Z"/><path d="M307.26,87v9.29H268.54v-50h37.8v9.29H280V66.41h23.22v9H280V87Z"/><path d="M343.44,96.36l-9.66-14H323.11v14H311.52V46.26h21.69a27.77,27.77,0,0,1,11.55,2.22,17.14,17.14,0,0,1,7.55,6.3A17.31,17.31,0,0,1,355,64.44a16.31,16.31,0,0,1-10.3,15.82l11.23,16.1ZM341,58q-2.71-2.25-7.94-2.25h-9.45V73.17h9.45q5.22,0,7.94-2.29a7.94,7.94,0,0,0,2.72-6.44A7.92,7.92,0,0,0,341,58Z"/></g></g></svg>